<svg width="498" height="135" viewBox="0 0 498 135" fill="none" xmlns="http://www.w3.org/2000/svg">
<path d="M121.391 96V93.36C123.417 93.3067 124.804 92.8533 125.551 92C126.297 91.0933 126.697 89.8933 126.751 88.4C126.857 86.8533 126.911 85.0933 126.911 83.12V49.52C126.911 48.08 126.937 46.8533 126.991 45.84C127.044 44.7733 127.097 43.8933 127.151 43.2C126.191 43.2533 125.231 43.3067 124.271 43.36C123.311 43.4133 122.351 43.4667 121.391 43.52V40C124.324 39.9467 127.257 39.92 130.191 39.92C133.177 39.8667 136.271 39.84 139.471 39.84C145.657 39.84 150.484 40.9333 153.951 43.12C157.471 45.3067 159.177 48.7733 159.071 53.52C159.071 55.2267 158.564 56.9333 157.551 58.64C156.591 60.3467 155.124 61.8667 153.151 63.2C151.231 64.48 148.804 65.3867 145.871 65.92V66.08C151.737 66.08 156.164 67.44 159.151 70.16C162.137 72.8267 163.631 76.2133 163.631 80.32C163.631 83.5733 162.804 86.3733 161.151 88.72C159.497 91.0667 157.257 92.88 154.431 94.16C151.604 95.3867 148.377 96 144.751 96H121.391ZM133.631 92.8C134.484 92.8533 135.497 92.9067 136.671 92.96C137.897 92.96 139.017 92.96 140.031 92.96C141.097 92.96 141.791 92.96 142.111 92.96C146.217 92.96 149.524 91.9467 152.031 89.92C154.591 87.84 155.871 84.8 155.871 80.8C155.871 77.5467 155.231 75.0133 153.951 73.2C152.671 71.3867 150.991 70.1067 148.911 69.36C146.831 68.6133 144.564 68.24 142.111 68.24C140.511 68.24 139.044 68.2667 137.711 68.32C136.431 68.32 135.151 68.3733 133.871 68.48V86.56C133.871 88 133.844 89.2267 133.791 90.24C133.791 91.2533 133.737 92.1067 133.631 92.8ZM133.871 65.36L139.711 65.2C142.751 65.1467 145.151 64.5333 146.911 63.36C148.671 62.1333 149.924 60.6133 150.671 58.8C151.471 56.9867 151.844 55.0933 151.791 53.12C151.737 50.24 151.071 48.0533 149.791 46.56C148.564 45.0667 147.044 44.0533 145.231 43.52C143.417 42.9867 141.631 42.72 139.871 42.72C138.111 42.72 136.804 42.96 135.951 43.44C135.097 43.92 134.537 44.72 134.271 45.84C134.004 46.96 133.871 48.5067 133.871 50.48V65.36ZM189.876 97.28C186.143 97.28 182.756 96.4267 179.716 94.72C176.676 92.96 174.25 90.56 172.436 87.52C170.676 84.4267 169.796 80.9067 169.796 76.96C169.796 72.7467 170.676 68.96 172.436 65.6C174.196 62.24 176.596 59.6 179.636 57.68C182.676 55.7067 186.09 54.72 189.876 54.72C193.61 54.72 196.996 55.6267 200.036 57.44C203.076 59.2 205.503 61.6 207.316 64.64C209.13 67.68 210.036 71.1467 210.036 75.04C210.036 79.1467 209.13 82.9067 207.316 86.32C205.556 89.68 203.156 92.3467 200.116 94.32C197.076 96.2933 193.663 97.28 189.876 97.28ZM190.516 94.08C193.343 94.08 195.583 93.28 197.236 91.68C198.89 90.08 200.063 88 200.756 85.44C201.503 82.88 201.876 80.1867 201.876 77.36C201.876 74.96 201.636 72.6133 201.156 70.32C200.73 67.9733 200.036 65.8667 199.076 64C198.116 62.08 196.863 60.56 195.316 59.44C193.823 58.32 192.01 57.76 189.876 57.76C187.103 57.76 184.836 58.56 183.076 60.16C181.316 61.76 180.01 63.84 179.156 66.4C178.356 68.96 177.956 71.7067 177.956 74.64C177.956 77.9467 178.41 81.0933 179.316 84.08C180.223 87.0133 181.61 89.4133 183.476 91.28C185.343 93.1467 187.69 94.08 190.516 94.08ZM236.433 97.28C232.7 97.28 229.313 96.4267 226.273 94.72C223.233 92.96 220.806 90.56 218.993 87.52C217.233 84.4267 216.353 80.9067 216.353 76.96C216.353 72.7467 217.233 68.96 218.993 65.6C220.753 62.24 223.153 59.6 226.193 57.68C229.233 55.7067 232.646 54.72 236.433 54.72C240.166 54.72 243.553 55.6267 246.593 57.44C249.633 59.2 252.06 61.6 253.873 64.64C255.686 67.68 256.593 71.1467 256.593 75.04C256.593 79.1467 255.686 82.9067 253.873 86.32C252.113 89.68 249.713 92.3467 246.673 94.32C243.633 96.2933 240.22 97.28 236.433 97.28ZM237.073 94.08C239.9 94.08 242.14 93.28 243.793 91.68C245.446 90.08 246.62 88 247.313 85.44C248.06 82.88 248.433 80.1867 248.433 77.36C248.433 74.96 248.193 72.6133 247.713 70.32C247.286 67.9733 246.593 65.8667 245.633 64C244.673 62.08 243.42 60.56 241.873 59.44C240.38 58.32 238.566 57.76 236.433 57.76C233.66 57.76 231.393 58.56 229.633 60.16C227.873 61.76 226.566 63.84 225.713 66.4C224.913 68.96 224.513 71.7067 224.513 74.64C224.513 77.9467 224.966 81.0933 225.873 84.08C226.78 87.0133 228.166 89.4133 230.033 91.28C231.9 93.1467 234.246 94.08 237.073 94.08ZM262.43 96V93.6C264.083 93.6 265.203 93.2 265.79 92.4C266.43 91.5467 266.803 90.4 266.91 88.96C267.017 87.4667 267.07 85.76 267.07 83.84L267.15 46C267.15 45.1467 267.15 44.3467 267.15 43.6C267.203 42.8 267.283 41.8667 267.39 40.8C266.43 40.8533 265.47 40.9067 264.51 40.96C263.603 41.0133 262.67 41.0667 261.71 41.12V37.76C264.057 37.76 265.87 37.6533 267.15 37.44C268.43 37.2267 269.39 36.96 270.03 36.64C270.723 36.32 271.257 35.9733 271.63 35.6H273.95V73.44H277.15L286.91 63.2C287.817 62.2933 288.643 61.4933 289.39 60.8C290.137 60.0533 290.883 59.44 291.63 58.96L286.19 59.2V56H300.75V58.4C298.937 58.56 297.23 59.1467 295.63 60.16C294.083 61.12 292.643 62.2133 291.31 63.44C290.03 64.6667 288.91 65.7867 287.95 66.8L281.71 73.36C282.777 73.84 283.683 74.4533 284.43 75.2C285.177 75.9467 285.923 76.7733 286.67 77.68L292.35 84.96C292.617 85.28 293.07 85.8933 293.71 86.8C294.403 87.7067 295.203 88.6933 296.11 89.76C297.07 90.8267 298.057 91.7333 299.07 92.48C300.137 93.2267 301.123 93.6 302.03 93.6V96H294.75C293.257 96 291.843 95.2267 290.51 93.68C289.177 92.1333 287.763 90.4 286.27 88.48C284.883 86.56 283.63 84.8267 282.51 83.28C281.443 81.68 280.457 80.2933 279.55 79.12C278.697 77.9467 277.923 77.04 277.23 76.4L273.95 76.56V87.52C273.95 88.5867 273.923 89.5467 273.87 90.4C273.87 91.2 273.79 92.0533 273.63 92.96C274.483 92.9067 275.337 92.88 276.19 92.88C277.043 92.8267 277.897 92.7733 278.75 92.72V96H262.43Z" fill="#0F0D0B"/>
<path d="M335.399 38.72C340.092 38.72 344.119 39.5467 347.479 41.2C350.839 42.8533 353.585 45.04 355.719 47.76C357.905 50.4267 359.505 53.4133 360.519 56.72C361.532 59.9733 362.039 63.2267 362.039 66.48C362.039 69.8933 361.425 73.4133 360.199 77.04C359.025 80.6133 357.239 83.9467 354.839 87.04C352.439 90.08 349.399 92.56 345.719 94.48C342.092 96.3467 337.825 97.28 332.919 97.28C328.225 97.28 324.199 96.48 320.839 94.88C317.479 93.2267 314.705 91.0667 312.519 88.4C310.385 85.7333 308.812 82.8 307.799 79.6C306.785 76.3467 306.279 73.0933 306.279 69.84C306.279 65.7333 306.945 61.8133 308.279 58.08C309.665 54.3467 311.639 51.04 314.199 48.16C316.759 45.2267 319.825 42.9333 323.399 41.28C326.972 39.5733 330.972 38.72 335.399 38.72ZM334.999 41.92C331.639 41.92 328.652 42.6933 326.039 44.24C323.479 45.7867 321.292 47.84 319.479 50.4C317.719 52.96 316.359 55.7867 315.399 58.88C314.439 61.92 313.959 64.9867 313.959 68.08C313.905 70.8 314.225 73.68 314.919 76.72C315.612 79.7067 316.705 82.5067 318.199 85.12C319.745 87.7333 321.745 89.8667 324.199 91.52C326.705 93.1733 329.745 94 333.319 94C336.785 94 339.825 93.2267 342.439 91.68C345.052 90.1333 347.239 88.08 348.999 85.52C350.759 82.9067 352.092 80.0533 352.999 76.96C353.905 73.8667 354.359 70.8 354.359 67.76C354.359 64.6133 353.932 61.52 353.079 58.48C352.279 55.3867 351.052 52.6133 349.399 50.16C347.799 47.6533 345.799 45.6533 343.399 44.16C340.999 42.6667 338.199 41.92 334.999 41.92ZM382.526 44.72L381.086 56H393.806L393.566 59.04L380.766 59.2C380.552 61.44 380.286 63.76 379.966 66.16C379.699 68.5067 379.459 70.8533 379.246 73.2C379.032 75.5467 378.846 77.8133 378.686 80C378.526 82.1333 378.446 84.08 378.446 85.84C378.446 86.8533 378.499 87.92 378.606 89.04C378.766 90.1067 379.112 91.0133 379.646 91.76C380.179 92.4533 381.032 92.8 382.206 92.8C382.739 92.8 383.379 92.6933 384.126 92.48C384.926 92.2667 385.806 91.76 386.766 90.96C387.726 90.16 388.712 88.9067 389.726 87.2L391.806 88.56C390.259 91.28 388.579 93.36 386.766 94.8C385.006 96.1867 382.846 96.88 380.286 96.88C378.206 96.88 376.552 96.4533 375.326 95.6C374.152 94.6933 373.299 93.52 372.766 92.08C372.232 90.64 371.966 89.0933 371.966 87.44C371.966 85.4133 372.046 82.96 372.206 80.08C372.366 77.1467 372.606 73.92 372.926 70.4C373.246 66.8267 373.619 63.12 374.046 59.28L366.926 59.36L367.166 56C370.846 56 373.566 55.0133 375.326 53.04C377.086 51.0667 378.472 48.2933 379.486 44.72H382.526ZM411.426 44.72L409.986 56H422.706L422.466 59.04L409.666 59.2C409.453 61.44 409.186 63.76 408.866 66.16C408.6 68.5067 408.36 70.8533 408.146 73.2C407.933 75.5467 407.746 77.8133 407.586 80C407.426 82.1333 407.346 84.08 407.346 85.84C407.346 86.8533 407.4 87.92 407.506 89.04C407.666 90.1067 408.013 91.0133 408.546 91.76C409.08 92.4533 409.933 92.8 411.106 92.8C411.64 92.8 412.28 92.6933 413.026 92.48C413.826 92.2667 414.706 91.76 415.666 90.96C416.626 90.16 417.613 88.9067 418.626 87.2L420.706 88.56C419.16 91.28 417.48 93.36 415.666 94.8C413.906 96.1867 411.746 96.88 409.186 96.88C407.106 96.88 405.453 96.4533 404.226 95.6C403.053 94.6933 402.2 93.52 401.666 92.08C401.133 90.64 400.866 89.0933 400.866 87.44C400.866 85.4133 400.946 82.96 401.106 80.08C401.266 77.1467 401.506 73.92 401.826 70.4C402.146 66.8267 402.52 63.12 402.946 59.28L395.826 59.36L396.066 56C399.746 56 402.466 55.0133 404.226 53.04C405.986 51.0667 407.373 48.2933 408.386 44.72H411.426ZM445.527 55.12C447.447 55.12 449.26 55.4133 450.967 56C452.674 56.5867 454.06 57.5467 455.127 58.88C456.194 60.2133 456.727 62.0267 456.727 64.32C456.727 66.5067 455.98 68.4 454.487 70C452.994 71.6 451.047 72.9333 448.647 74C446.247 75.0133 443.687 75.84 440.967 76.48C438.247 77.12 435.634 77.5733 433.127 77.84C433.127 81.1467 433.447 83.92 434.087 86.16C434.78 88.4 435.794 90.08 437.127 91.2C438.46 92.32 440.167 92.88 442.247 92.88C443.794 92.88 445.34 92.5333 446.887 91.84C448.487 91.1467 450.007 90.1067 451.447 88.72C452.887 87.28 454.194 85.44 455.367 83.2L458.007 84.72C456.514 87.4933 454.914 89.7867 453.207 91.6C451.5 93.4133 449.634 94.7467 447.607 95.6C445.58 96.4533 443.34 96.88 440.887 96.88C435.82 96.88 432.087 95.3067 429.687 92.16C427.287 88.96 426.087 84.7733 426.087 79.6C426.087 76.5067 426.487 73.4933 427.287 70.56C428.087 67.6267 429.287 65.0133 430.887 62.72C432.487 60.3733 434.514 58.5333 436.967 57.2C439.42 55.8133 442.274 55.12 445.527 55.12ZM444.407 57.84C441.954 57.84 439.927 58.6667 438.327 60.32C436.78 61.9733 435.58 64.1067 434.727 66.72C433.927 69.3333 433.42 72.08 433.207 74.96C436.034 74.5867 438.727 73.92 441.287 72.96C443.847 72 445.954 70.7733 447.607 69.28C449.26 67.7333 450.087 65.9467 450.087 63.92C450.087 62.2133 449.607 60.7733 448.647 59.6C447.74 58.4267 446.327 57.84 444.407 57.84ZM468.932 96C468.879 95.6267 468.852 95.3067 468.852 95.04C468.852 94.72 468.852 94.3467 468.852 93.92C468.852 93.0133 468.879 91.9467 468.932 90.72C468.985 89.44 469.092 87.76 469.252 85.68C469.465 83.6 469.759 80.88 470.132 77.52C470.505 74.0533 470.799 71.44 471.012 69.68C471.225 67.92 471.385 66.64 471.492 65.84C471.599 64.9867 471.652 64.2933 471.652 63.76C471.705 62.6933 471.625 61.6533 471.412 60.64C471.252 59.6267 470.612 59.12 469.492 59.12C468.639 59.12 467.652 59.7067 466.532 60.88C465.412 62.0533 464.452 64.0533 463.652 66.88L461.412 66.4C461.572 65.44 461.892 64.3467 462.372 63.12C462.905 61.84 463.599 60.5867 464.452 59.36C465.305 58.1333 466.345 57.12 467.572 56.32C468.799 55.52 470.212 55.12 471.812 55.12C474.212 55.12 475.812 55.9467 476.612 57.6C477.412 59.2533 477.759 61.4667 477.652 64.24C477.599 65.4133 477.439 66.72 477.172 68.16C476.959 69.5467 476.719 71.0133 476.452 72.56H476.692C478.239 67.92 479.839 64.3467 481.492 61.84C483.199 59.3333 484.905 57.6 486.612 56.64C488.372 55.6267 490.105 55.12 491.812 55.12C493.412 55.12 494.745 55.5467 495.812 56.4C496.879 57.2 497.412 58.32 497.412 59.76C497.412 60.72 497.065 61.6 496.372 62.4C495.732 63.2 494.852 63.6 493.732 63.6C492.772 63.6 491.945 63.3067 491.252 62.72C490.559 62.1333 490.159 61.3067 490.052 60.24C488.559 59.92 487.092 60.4 485.652 61.68C484.265 62.96 482.932 64.8 481.652 67.2C480.425 69.5467 479.332 72.1867 478.372 75.12C477.465 78.0533 476.745 81.04 476.212 84.08C475.679 87.12 475.412 89.9467 475.412 92.56C475.412 93.36 475.412 93.9733 475.412 94.4C475.465 94.7733 475.519 95.3067 475.572 96H468.932Z" fill="#BF4E2B"/>
<path fill-rule="evenodd" clip-rule="evenodd" d="M17.2227 3.18533C15.7908 5.36829 15.4728 7.53574 16.0358 11.2849C16.5462 14.6858 16.1709 18.1905 14.9158 21.7249C9.13667 38.0005 0 85.3622 0 99.0433C0 109.459 2.46025 121.673 7.42504 127.353C12.3898 133.032 17.2478 135 24.5832 135C35.1984 135 43.0299 128.291 43.0299 119.199C43.0299 114.273 41.2405 112.518 33.6458 110.002L28.0889 108.16L24.3776 93.2495C22.3373 85.0485 20.8456 78.1263 21.0655 77.8674C21.2842 77.6074 28.377 78.8921 36.8264 80.7208L52.1892 84.0465L66.7752 80.8091C74.7978 79.0281 81.7866 77.7434 82.3066 77.9545C83.4313 78.4114 76.9242 106.21 75.209 108.271C74.5564 109.057 72.0236 110.07 69.5817 110.522C63.524 111.645 60.959 114.237 60.959 119.239C60.959 128.292 68.8095 135 79.4056 135C86.7088 135 91.8293 132.734 96.4861 127.441C105.065 117.689 106.242 99.8795 100.304 69.6581C95.8275 46.8742 91.607 28.8619 89.073 21.7249C87.818 18.1905 87.4427 14.6858 87.953 11.2849C89.3539 1.96264 82.5217 -2.96511 74.9616 1.91373C72.6643 3.39766 71.4511 3.39766 65.7783 1.91373C57.4413 -0.265646 46.5475 -0.265646 38.2105 1.91373C32.5377 3.39766 31.3245 3.39766 29.0272 1.91373C24.7828 -0.826295 19.4818 -0.254908 17.2227 3.18533ZM58.7991 26.4928C61.2267 27.1656 65.446 29.5776 68.1748 31.8536C70.9048 34.1296 73.8345 35.9917 74.6855 35.9917C75.5365 35.9917 77.5028 37.0951 79.0542 38.4442C81.7089 40.7524 81.7221 40.8228 79.2658 39.6371C76.488 38.2975 71.7164 37.9265 71.7164 39.0514C71.7164 39.4212 73.3301 41.0793 75.3023 42.735C79.714 46.44 80.1085 49.0524 75.7385 45.6217C72.43 43.0237 69.3259 42.3712 69.3259 44.2714C69.3259 44.8893 69.8638 45.7255 70.5212 46.1311C71.1786 46.5367 71.7164 47.4039 71.7164 48.0588C71.7164 48.7125 70.5833 48.456 69.1968 47.4874C67.6405 46.3995 65.2082 45.9641 62.8308 46.3494C58.431 47.0615 55.4499 44.8249 54.2057 39.8769C53.5817 37.3993 54.0861 36.2446 56.7002 34.1642C59.4959 31.9407 59.6836 31.4445 57.9791 30.792C56.8807 30.3721 54.1877 30.0273 51.9944 30.0273C49.8011 30.0273 47.1081 30.3721 46.0097 30.792C44.3052 31.4445 44.4929 31.9407 47.2886 34.1642C49.9027 36.2446 50.4071 37.3993 49.7832 39.8769C48.5389 44.8249 45.5579 47.0615 41.1581 46.3494C38.7807 45.9641 36.3483 46.3995 34.792 47.4874C33.4055 48.456 32.2724 48.7125 32.2724 48.0588C32.2724 47.4039 32.8103 46.5367 33.4677 46.1311C34.1251 45.7255 34.6629 44.8893 34.6629 44.2714C34.6629 42.1564 31.26 43.1489 27.4028 46.3887C24.0633 49.192 23.7298 49.285 24.9131 47.077C25.6649 45.6742 27.6288 43.4686 29.277 42.1755C30.9241 40.8813 32.2724 39.4975 32.2724 39.1003C32.2724 37.9349 27.557 38.2701 24.723 39.6371C22.2668 40.8228 22.2799 40.7524 24.9346 38.4442C26.4861 37.0951 28.4511 35.9917 29.3009 35.9917C30.1508 35.9917 32.8055 34.2465 35.1984 32.1148C42.0139 26.0431 50.1692 24.1011 58.7991 26.4928ZM31.0771 29.4309C31.0771 32.4763 29.4456 33.4115 28.0531 31.1629C27.0598 29.5573 28.2395 26.4487 29.8448 26.4487C30.5225 26.4487 31.0771 27.7907 31.0771 29.4309ZM75.8999 29.4309C75.8999 30.6333 75.2281 31.8417 74.4058 32.1148C73.4591 32.4298 72.9117 31.4456 72.9117 29.4309C72.9117 27.4161 73.4591 26.432 74.4058 26.7469C75.2281 27.0201 75.8999 28.2285 75.8999 29.4309ZM30.1329 86.2485C30.6528 87.804 45.308 92.566 46.3563 91.5198C47.6018 90.2781 44.9614 88.781 38.0647 86.8211C30.0253 84.5356 29.5496 84.501 30.1329 86.2485ZM31.3413 94.6368C32.0525 96.7673 46.6157 100.483 46.6157 98.5339C46.6157 97.6882 43.7088 96.1541 40.1564 95.1235C32.4457 92.8869 30.7245 92.7914 31.3413 94.6368ZM33.1951 103.058C34.0318 104.066 36.1833 105.21 37.9762 105.602C39.7703 105.993 42.4478 106.657 43.9263 107.078C47.597 108.121 47.4452 105.433 43.7554 104.034C42.1812 103.437 38.8201 102.561 36.2849 102.086C32.2246 101.328 31.8564 101.443 33.1951 103.058Z" fill="#0F0D0B"/>
</svg>
