<svg width="467" height="140" viewBox="0 0 467 140" fill="none" xmlns="http://www.w3.org/2000/svg">
<path fill-rule="evenodd" clip-rule="evenodd" d="M17.3179 0.058316C15.9265 0.605583 15.3363 2.44356 14.6341 8.41848C14.4903 9.64242 14.263 11.5682 14.1292 12.698C13.9955 13.8278 13.8045 15.5995 13.7049 16.6352C13.6054 17.6708 13.449 19.0574 13.3576 19.7164C13.2661 20.3755 13.1125 21.8391 13.0161 22.9689C12.9198 24.0987 12.7308 26.1785 12.5963 27.5908C12.1995 31.7541 11.9953 34.1739 11.2162 43.9386C11.0773 45.6804 10.9191 48.0684 10.8647 49.2453C10.8101 50.4221 10.726 51.6572 10.6778 51.9896L10.5901 52.5944L12.0183 53.168C13.9666 53.9505 14.7248 54.273 16.8568 55.2258C17.5022 55.5141 18.0698 55.7501 18.1183 55.7501C18.2171 55.7501 20.3042 56.6509 24.2433 58.3937C24.7873 58.6344 25.6779 59.0284 26.222 59.2691C26.766 59.5098 27.3662 59.7755 27.5554 59.8592C30.5026 61.1641 30.7633 61.35 30.2973 61.8136C30.0122 62.0972 29.4709 62.0786 28.2437 61.7425C27.9598 61.6648 26.9532 61.4329 26.0069 61.2269C23.389 60.6576 20.0765 59.8986 17.4039 59.2554C11.7907 57.9048 10.6259 57.6331 10.4497 57.6331C10.3473 57.6331 10.2635 57.9168 10.2635 58.2634C10.2635 58.6102 10.188 59.5538 10.0957 60.3604C10.0034 61.1672 9.84988 62.5974 9.75438 63.5389C9.39083 67.1233 8.6539 71.5603 7.77812 75.436C6.58162 80.732 6.5639 80.8067 5.64941 84.423C4.79978 87.7832 4.22373 89.9994 3.18019 93.9236C2.89216 95.0063 2.55252 96.3544 2.42503 96.9193C2.2977 97.4842 2.07265 98.4471 1.92485 99.059C1.37633 101.329 0.999518 103.206 0.480932 106.249C0.392838 106.766 0.222844 108.438 0.103263 109.964C-0.304688 115.172 0.511214 120.701 2.28308 124.736C4.7473 130.348 9.18281 134.94 14.5959 137.483C17.0173 138.62 18.1003 138.974 21.1892 139.636C24.1318 140.267 28.6113 140.056 30.9966 139.174C33.0136 138.429 35.3913 136.954 36.2447 135.92C37.5147 134.38 37.8265 133.924 38.2761 132.953C39.1811 130.997 39.3781 130.118 39.3703 128.074C39.3645 126.518 39.285 125.953 38.9128 124.822C37.4197 120.283 33.637 117.224 27.7275 115.777C27.1597 115.638 26.308 115.472 25.8348 115.409C25.3617 115.345 24.7281 115.219 24.4269 115.127C23.8243 114.943 23.8455 114.998 23.4109 112.497C23.1519 111.006 22.8766 109.519 22.3968 107.019C22.2703 106.36 22.0459 105.166 21.8985 104.366C21.7508 103.565 21.5915 102.757 21.5444 102.568C21.4972 102.38 21.2959 101.34 21.097 100.257C20.8979 99.1746 20.5528 97.3643 20.3298 96.2346C20.107 95.1048 19.7582 93.2945 19.5552 92.2118C19.352 91.1291 19.0337 89.4344 18.8479 88.4458C18.662 87.4572 18.4354 86.3699 18.3441 86.0294C17.9729 84.6449 18.3026 83.8239 19.2295 83.8239C19.4616 83.8239 21.0428 84.1794 22.7431 84.6141C24.4436 85.0487 26.1058 85.4642 26.437 85.5373C26.7682 85.6105 27.6587 85.8372 28.4157 86.041C29.1728 86.2449 30.1991 86.5212 30.6964 86.6551C31.1936 86.7889 32.0262 87.014 32.5467 87.1553C35.1 87.848 35.5192 87.9596 36.1584 88.1168C36.5369 88.2097 37.195 88.3903 37.6209 88.5182C38.0467 88.6461 38.8597 88.8818 39.4275 89.0422C39.9953 89.2026 40.7695 89.434 41.1481 89.5564C41.5266 89.679 42.2621 89.9049 42.7826 90.0588C43.3031 90.2127 44.9678 90.7276 46.4819 91.2032C47.996 91.6787 49.4284 92.1265 49.665 92.1981C49.981 92.2938 50.8708 92.0685 53.0201 91.3482C54.6289 90.8091 56.5258 90.1973 57.2356 89.9883C57.9453 89.7795 58.8577 89.5011 59.2633 89.3697C59.6688 89.238 60.1397 89.1305 60.3099 89.1305C60.4801 89.1305 60.6774 89.0728 60.7483 89.0023C60.8192 88.9318 61.2387 88.7849 61.6804 88.676C62.122 88.5673 63.2963 88.2457 64.29 87.9615C65.2836 87.6774 66.6568 87.285 67.3414 87.0895C68.5009 86.7586 70.0835 86.3336 73.237 85.5064C75.5918 84.8888 79.8518 83.8573 80.5 83.7477C81.0072 83.6618 81.2107 83.7114 81.4893 83.9886C81.6822 84.1805 81.84 84.4949 81.84 84.6875C81.84 84.9888 80.8436 90.2191 80.2925 92.8109C80.1357 93.5482 79.7085 95.713 78.9076 99.8294C78.7976 100.394 78.5989 101.396 78.4659 102.055C78.3331 102.714 78.118 103.831 77.9881 104.537C77.8582 105.243 77.4659 107.323 77.1163 109.159C76.7668 110.995 76.4143 112.945 76.3329 113.493C76.1145 114.962 76.1904 114.914 73.437 115.33C71.4161 115.636 68.4772 116.698 66.6344 117.788C64.4037 119.108 62.1749 121.537 61.2793 123.624C59.7934 127.086 60.1908 131.149 62.3288 134.349C64.0764 136.964 66.7924 138.735 70.4629 139.654C72.2675 140.105 76.1462 140.094 78.4852 139.63C80.6746 139.196 81.6596 138.923 83.1431 138.338C91.9627 134.862 97.94 127.446 99.4893 118.06C100.511 111.872 100.033 105.88 97.7621 96.4057C97.0269 93.338 95.0974 85.4986 94.9183 84.851C94.6682 83.947 93.8984 80.7567 93.3693 78.4317C93.1766 77.5843 92.944 76.5829 92.8526 76.2063C92.5687 75.0356 92.0382 72.1647 91.4135 68.4176C90.7297 64.3162 90.6511 63.7424 90.3462 60.6288C90.1895 59.0283 90.0365 57.692 90.0062 57.6595C89.9758 57.627 89.5778 57.6888 89.1217 57.797C87.8586 58.0967 86.1614 58.5003 85.1091 58.7513C84.5886 58.8754 83.0401 59.2525 81.6679 59.5892C80.2957 59.9259 78.5924 60.3234 77.8826 60.4724C75.713 60.9279 74.5837 61.1733 73.237 61.4827C70.6821 62.0695 70.599 62.0777 70.1508 61.7899L69.7317 61.5205L70.1893 61.1603C70.4411 60.9621 71.0169 60.654 71.4689 60.4753C72.497 60.0692 73.2615 59.7339 75.1985 58.8395C76.0407 58.4505 77.4731 57.8175 78.3816 57.4329C79.2901 57.0482 80.4205 56.5593 80.8936 56.3465C83.0461 55.3785 83.3759 55.2366 83.4723 55.2366C83.5287 55.2366 84.0943 55.0014 84.7292 54.714C86.2416 54.0293 86.4308 53.9456 87.3458 53.5575C87.7717 53.3767 88.4556 53.0852 88.8658 52.9096L89.6117 52.5903L89.499 50.6181C89.4369 49.5335 89.3109 47.6447 89.2189 46.4208C88.8376 41.3505 88.5437 37.5017 88.2972 34.3525C88.1533 32.5165 87.9606 30.0515 87.8689 28.8747C87.777 27.6978 87.6206 26.0416 87.5212 25.1943C87.4217 24.3469 87.2612 22.7678 87.1645 21.685C87.0009 19.8541 86.772 17.5876 86.3264 13.3827C85.8952 9.31358 85.1038 3.91058 84.7478 2.60532C84.1664 0.473431 83.0611 -0.369295 81.5833 0.19218C80.5387 0.588979 76.7114 4.54532 72.3767 9.70918C71.9509 10.2164 71.363 10.9039 71.0705 11.2368C70.0865 12.3563 65.2318 18.3343 64.2191 19.6737C63.6673 20.4032 63.1286 20.9971 63.0217 20.9933C62.9149 20.9894 61.7435 20.875 60.4186 20.7393C55.713 20.257 50.788 20.0973 46.8735 20.3C42.8831 20.5065 38.2176 20.9082 37.7673 21.084C37.5501 21.1689 36.7552 20.2914 34.3775 17.3427C30.7296 12.818 31.3109 13.5159 27.7991 9.44556C23.8654 4.88649 20.4055 1.19616 19.3646 0.449637C18.8878 0.107616 17.7469 -0.110469 17.3179 0.058316ZM30.8275 43.8102C29.6814 44.9585 29.3049 46.1481 29.2968 48.6461C29.2893 50.9495 29.5423 51.985 30.4008 53.1639C31.2896 54.3846 32.3147 54.6741 33.3328 53.9914C34.6972 53.0766 35.3006 51.404 35.292 48.5605C35.2848 46.1672 34.891 44.9568 33.7466 43.8102C33.1188 43.1811 32.9214 43.0827 32.287 43.0827C31.6527 43.0827 31.4553 43.1811 30.8275 43.8102ZM67.0168 43.3431C65.9082 43.942 64.9448 46.3506 64.93 48.5605C64.9133 51.0293 65.7184 53.1126 67.029 53.9911C69.4139 55.5901 71.7236 51.5646 71.0161 47.042C70.5379 43.9857 68.8007 42.379 67.0168 43.3431ZM47.5142 58.1325C46.0562 58.5341 45.5356 59.0146 45.5356 59.9585C45.5356 61.4313 48.777 65.1619 50.059 65.1644C50.703 65.1658 51.7311 64.4479 52.9136 63.171C55.1576 60.7481 55.4143 59.3181 53.7582 58.4653C53.112 58.1325 52.7097 58.0792 50.5253 58.0376C49.1531 58.0116 47.7981 58.0542 47.5142 58.1325ZM75.0436 64.9939C70.1436 65.0842 69.5212 65.1816 69.8991 65.798C70.0971 66.1208 70.8387 66.3134 73.7532 66.7985C74.6522 66.9482 76.0072 67.1779 76.7642 67.3092C81.9967 68.2161 84.0817 68.4759 84.851 68.3169C85.5177 68.1791 86.2676 67.4745 86.4038 66.8578C86.5384 66.2477 86.0716 65.4154 85.4633 65.1814C84.8885 64.9602 80.8348 64.8873 75.0436 64.9939ZM14.7327 65.3791C14.4186 65.591 14.092 65.9726 14.0073 66.2273C13.7823 66.9035 14.262 67.8032 15.0442 68.1724C15.6025 68.4361 15.8611 68.4463 17.4826 68.2693C20.1352 67.9797 22.0057 67.689 26.351 66.8913C30.5054 66.1287 30.8909 65.9769 30.3054 65.3331C30.0071 65.0051 29.7552 64.9939 22.6505 64.9939C15.316 64.9939 15.3031 64.9946 14.7327 65.3791ZM28.3357 94.7403C27.7209 95.2355 27.7794 96.0868 28.4677 96.6584C28.9319 97.0439 33.6121 98.6888 40.0269 100.721C41.1405 101.074 41.8693 100.893 42.2114 100.179C42.7499 99.0556 41.9476 98.513 37.7929 97.1909C37.1778 96.9951 35.163 96.3409 33.3158 95.7368C29.122 94.3656 28.8648 94.3141 28.3357 94.7403ZM29.1138 102.521C28.4475 103.467 29.1425 104.45 30.8245 104.94C31.3923 105.106 31.9756 105.304 32.1207 105.381C32.2657 105.458 32.6528 105.578 32.9809 105.647C33.3091 105.717 33.6549 105.834 33.7495 105.906C33.8442 105.979 34.19 106.095 34.5181 106.165C34.8462 106.235 35.2334 106.355 35.3784 106.433C35.5235 106.51 36.2229 106.736 36.9326 106.935C37.6424 107.134 38.3949 107.366 38.605 107.452C38.8151 107.536 39.4536 107.726 40.0242 107.874C40.9455 108.111 41.1164 108.112 41.556 107.886C42.4129 107.446 42.434 106.261 41.5927 105.828C41.1496 105.6 40.1985 105.273 37.7929 104.522C37.1778 104.331 36.5197 104.108 36.3304 104.028C35.2497 103.57 30.3947 102.136 29.931 102.138C29.5601 102.14 29.2946 102.264 29.1138 102.521ZM29.974 110.053C29.6538 110.508 29.6423 110.715 29.9054 111.289C30.1349 111.791 30.9553 112.319 31.787 112.5C32.1031 112.569 32.4804 112.689 32.6255 112.767C32.9662 112.948 36.5553 114.176 38.6314 114.821C39.5183 115.096 40.5443 115.321 40.9111 115.321C42.1381 115.321 42.7141 114.151 41.8599 113.394C41.3807 112.97 31.6107 109.691 30.7913 109.68C30.413 109.675 30.1585 109.791 29.974 110.053Z" fill="black"/>
<path d="M161.16 100.28L129.24 57.4C128.76 56.76 128.28 56.1467 127.8 55.56C127.373 54.92 126.92 54.28 126.44 53.64H126.36L126.6 87.88C126.6 89.2133 126.6 90.5467 126.6 91.88C126.6 93.2133 126.547 94.52 126.44 95.8C127.4 95.7467 128.36 95.6933 129.32 95.64C130.28 95.5867 131.24 95.5333 132.2 95.48V99H117.56V96.36C119.213 96.36 120.387 96.0133 121.08 95.32C121.827 94.5733 122.307 93.72 122.52 92.76C122.733 91.7467 122.84 90.84 122.84 90.04L122.92 51.56C122.92 50.6533 122.92 49.7467 122.92 48.84C122.92 47.9333 122.92 47.0533 122.92 46.2C122.067 46.2533 121.187 46.3067 120.28 46.36C119.373 46.4133 118.467 46.4667 117.56 46.52V43H127.08L157.08 83.16C157.773 84.0667 158.44 84.9733 159.08 85.88C159.773 86.7867 160.467 87.6933 161.16 88.6H161.24L161.32 51.96C161.32 50.8933 161.347 49.88 161.4 48.92C161.453 47.9067 161.507 47 161.56 46.2C160.6 46.2533 159.64 46.3067 158.68 46.36C157.72 46.4133 156.76 46.4667 155.8 46.52V43H170.52V45.64C168.547 45.6933 167.187 46.1467 166.44 47C165.693 47.8533 165.293 49 165.24 50.44C165.187 51.88 165.16 53.56 165.16 55.48L165 100.28H161.16ZM196.036 100.28C192.356 100.28 189.023 99.4267 186.036 97.72C183.103 95.96 180.783 93.5067 179.076 90.36C177.37 87.16 176.516 83.4 176.516 79.08C176.516 75.3467 177.343 71.8533 178.996 68.6C180.703 65.3467 183.076 62.7333 186.116 60.76C189.156 58.7333 192.676 57.72 196.676 57.72C198.916 57.72 200.996 58.0933 202.916 58.84C204.89 59.5333 206.623 60.6267 208.116 62.12C209.61 63.56 210.783 65.4 211.636 67.64C212.49 69.8267 212.916 72.4133 212.916 75.4L184.756 75.88C184.756 79.9333 185.183 83.5067 186.036 86.6C186.943 89.64 188.383 92.0133 190.356 93.72C192.33 95.3733 194.863 96.2 197.956 96.2C199.61 96.2 201.29 95.9067 202.996 95.32C204.756 94.7333 206.383 93.9333 207.876 92.92C209.37 91.9067 210.57 90.7867 211.476 89.56L213.396 91.16C211.956 93.4 210.223 95.1867 208.196 96.52C206.17 97.8533 204.09 98.8133 201.956 99.4C199.823 99.9867 197.85 100.28 196.036 100.28ZM184.996 72.52H205.396C205.396 70.6 205.103 68.76 204.516 67C203.983 65.1867 203.076 63.72 201.796 62.6C200.516 61.4267 198.836 60.84 196.756 60.84C193.663 60.84 191.076 61.7733 188.996 63.64C186.97 65.4533 185.636 68.4133 184.996 72.52ZM218.045 99V96.6C219.698 96.1733 221.005 95.48 221.965 94.52C222.925 93.5067 224.152 92.04 225.645 90.12L233.645 79.72C232.898 78.7067 231.992 77.5067 230.925 76.12C229.858 74.68 228.845 73.32 227.885 72.04C226.978 70.7067 226.258 69.72 225.725 69.08C224.445 67.3733 223.512 65.96 222.925 64.84C222.338 63.72 221.912 62.8133 221.645 62.12L217.885 62.28V59H234.365V61.4C231.965 61.4533 230.605 62.0133 230.285 63.08C230.018 64.0933 230.872 65.96 232.845 68.68L237.485 75L244.765 66.2C245.565 65.24 246.232 64.44 246.765 63.8C247.298 63.1067 247.832 62.4933 248.365 61.96L242.845 62.28V59H255.965V61.4C254.525 61.8267 253.298 62.3867 252.285 63.08C251.272 63.72 250.258 64.6 249.245 65.72C248.285 66.7867 247.085 68.2 245.645 69.96L239.485 77.32L250.525 91C251.112 91.8 251.698 92.5733 252.285 93.32C252.872 94.0667 253.458 94.9467 254.045 95.96L257.645 95.72V99H242.205V96.6C243.485 96.6 244.392 96.3067 244.925 95.72C245.512 95.08 245.245 94.0667 244.125 92.68L235.725 82.28L229.005 91.48C228.205 92.5467 227.592 93.3467 227.165 93.88C226.738 94.4133 226.125 95.1067 225.325 95.96L231.485 95.72V99H218.045ZM277.107 100.28C275.88 100.28 274.627 100.093 273.347 99.72C272.067 99.4 270.867 98.7333 269.747 97.72C268.68 96.7067 267.827 95.24 267.187 93.32C266.547 91.3467 266.227 88.76 266.227 85.56L266.387 62.36L260.227 62.44V59C261.614 58.9467 263.027 58.44 264.467 57.48C265.907 56.4667 267.187 55.1067 268.307 53.4C269.48 51.6933 270.28 49.8267 270.707 47.8H273.427V59H286.867V62.12L273.427 62.28L273.267 84.52C273.267 86.92 273.454 88.9733 273.827 90.68C274.254 92.3333 274.92 93.5867 275.827 94.44C276.734 95.2933 277.907 95.72 279.347 95.72C280.84 95.72 282.227 95.2933 283.507 94.44C284.84 93.5867 286.014 92.4133 287.027 90.92L289.187 92.68C288.014 94.44 286.84 95.8267 285.667 96.84C284.547 97.8533 283.454 98.6 282.387 99.08C281.32 99.6133 280.334 99.9333 279.427 100.04C278.52 100.2 277.747 100.28 277.107 100.28Z" fill="#0F0D0B"/>
<path d="M315.084 42.84C320.098 42.84 324.178 43.4533 327.324 44.68C330.524 45.9067 332.844 47.6667 334.284 49.96C335.724 52.2533 336.311 55.0533 336.044 58.36C335.938 60.44 335.404 62.52 334.444 64.6C333.484 66.68 331.911 68.5467 329.724 70.2C327.538 71.8533 324.551 73.1067 320.764 73.96C321.511 74.7067 322.098 75.2933 322.524 75.72C323.004 76.0933 323.404 76.4667 323.724 76.84C324.044 77.2133 324.364 77.6667 324.684 78.2C325.058 78.68 325.511 79.4 326.044 80.36L330.524 87.88C331.484 89.48 332.338 90.84 333.084 91.96C333.884 93.08 334.791 93.96 335.804 94.6C336.871 95.1867 338.151 95.48 339.644 95.48L339.404 99H328.604C327.484 98.0933 326.418 96.8933 325.404 95.4C324.391 93.9067 323.351 92.3067 322.284 90.6L317.244 81.64C316.658 80.52 315.991 79.3733 315.244 78.2C314.551 76.9733 313.778 75.9333 312.924 75.08C312.444 75.08 311.831 75.08 311.084 75.08C310.338 75.08 309.644 75.08 309.004 75.08C308.364 75.08 307.911 75.08 307.644 75.08L306.924 88.28C306.871 89.72 306.791 91.0267 306.684 92.2C306.578 93.32 306.471 94.2267 306.364 94.92C307.004 94.8667 307.671 94.84 308.364 94.84C309.111 94.7867 309.831 94.7333 310.524 94.68C311.271 94.6267 311.911 94.6 312.444 94.6L312.284 99H292.604L292.844 95.48C294.551 95.3733 295.804 95 296.604 94.36C297.458 93.72 298.018 92.76 298.284 91.48C298.551 90.2 298.738 88.5733 298.844 86.6L300.604 53.32C300.658 52.1467 300.738 51.0267 300.844 49.96C300.951 48.84 301.058 47.88 301.164 47.08C300.258 47.1333 299.244 47.1867 298.124 47.24C297.058 47.2933 296.124 47.3467 295.324 47.4L295.564 43C298.818 42.9467 302.044 42.92 305.244 42.92C308.498 42.8667 311.778 42.84 315.084 42.84ZM314.604 46.76C313.004 46.76 311.804 47.0533 311.004 47.64C310.204 48.2267 309.644 49.1333 309.324 50.36C309.004 51.5333 308.791 53.08 308.684 55L307.884 70.92C308.631 70.9733 309.351 71.0533 310.044 71.16C310.791 71.2133 311.591 71.2133 312.444 71.16C315.378 71.1067 317.911 70.6533 320.044 69.8C322.231 68.8933 323.938 67.5333 325.164 65.72C326.391 63.8533 327.058 61.4533 327.164 58.52C327.324 56.3333 327.111 54.4933 326.524 53C325.938 51.5067 325.084 50.3067 323.964 49.4C322.844 48.44 321.484 47.7733 319.884 47.4C318.284 46.9733 316.524 46.76 314.604 46.76ZM362.902 58.12C364.982 58.12 366.875 58.44 368.582 59.08C370.342 59.6667 371.755 60.6533 372.822 62.04C373.889 63.4267 374.422 65.2933 374.422 67.64C374.422 69.8267 373.702 71.72 372.262 73.32C370.822 74.8667 368.955 76.1467 366.662 77.16C364.369 78.1733 361.889 79 359.222 79.64C356.555 80.2267 353.995 80.68 351.542 81C351.542 84.2 351.889 86.8133 352.582 88.84C353.275 90.8667 354.235 92.36 355.462 93.32C356.742 94.28 358.262 94.76 360.022 94.76C361.355 94.76 362.742 94.4667 364.182 93.88C365.675 93.2933 367.115 92.36 368.502 91.08C369.889 89.7467 371.142 87.96 372.262 85.72L375.542 87.48C374.049 90.4667 372.422 92.8933 370.662 94.76C368.902 96.5733 367.009 97.88 364.982 98.68C362.955 99.48 360.769 99.88 358.422 99.88C353.409 99.88 349.622 98.36 347.062 95.32C344.502 92.2267 343.222 87.96 343.222 82.52C343.222 79.64 343.622 76.76 344.422 73.88C345.222 70.9467 346.422 68.3067 348.022 65.96C349.622 63.56 351.675 61.6667 354.182 60.28C356.689 58.84 359.595 58.12 362.902 58.12ZM361.862 61.72C359.622 61.72 357.782 62.4933 356.342 64.04C354.955 65.5333 353.889 67.48 353.142 69.88C352.395 72.28 351.915 74.76 351.702 77.32C354.529 76.8933 357.089 76.2267 359.382 75.32C361.675 74.36 363.489 73.1867 364.822 71.8C366.209 70.36 366.875 68.76 366.822 67C366.822 65.4 366.369 64.12 365.462 63.16C364.609 62.2 363.409 61.72 361.862 61.72ZM404.631 58.12C406.231 58.12 407.991 58.2533 409.911 58.52C411.884 58.7867 413.804 59.1333 415.671 59.56C415.297 62.3867 414.897 65.3467 414.471 68.44C414.044 71.48 413.644 74.4667 413.271 77.4C412.951 80.28 412.657 82.8933 412.391 85.24C412.177 87.5867 412.071 89.4267 412.071 90.76C412.071 91.7733 412.151 92.7067 412.311 93.56C412.524 94.36 413.057 94.76 413.911 94.76C414.764 94.76 415.671 94.2267 416.631 93.16C417.591 92.04 418.444 90.1467 419.191 87.48L422.151 88.2C421.937 89.2133 421.564 90.3867 421.031 91.72C420.551 93 419.884 94.28 419.031 95.56C418.177 96.7867 417.111 97.8267 415.831 98.68C414.604 99.48 413.164 99.88 411.511 99.88C409.484 99.88 407.964 99.2667 406.951 98.04C405.937 96.8133 405.431 95.0267 405.431 92.68C405.431 91.4 405.537 90.0133 405.751 88.52C405.964 87.0267 406.204 85.5067 406.471 83.96H406.311C405.137 87.3733 403.911 90.12 402.631 92.2C401.351 94.28 400.071 95.88 398.791 97C397.511 98.12 396.231 98.8667 394.951 99.24C393.724 99.6667 392.524 99.88 391.351 99.88C388.471 99.88 386.017 98.7867 383.991 96.6C382.017 94.36 381.031 90.7333 381.031 85.72C381.031 82.04 381.511 78.5467 382.471 75.24C383.484 71.88 384.977 68.92 386.951 66.36C388.977 63.8 391.457 61.8 394.391 60.36C397.377 58.8667 400.791 58.12 404.631 58.12ZM401.991 61.8C399.911 61.8 398.071 62.4133 396.471 63.64C394.871 64.8133 393.511 66.4667 392.391 68.6C391.324 70.7333 390.524 73.2133 389.991 76.04C389.457 78.8133 389.191 81.8 389.191 85C389.191 87.9867 389.511 90.44 390.151 92.36C390.844 94.2267 392.017 95.16 393.671 95.16C395.004 95.16 396.311 94.4933 397.591 93.16C398.924 91.7733 400.151 89.9333 401.271 87.64C402.444 85.3467 403.457 82.7867 404.311 79.96C405.217 77.08 405.911 74.1467 406.391 71.16C406.924 68.1733 407.217 65.32 407.271 62.6C406.631 62.3333 405.831 62.1467 404.871 62.04C403.964 61.88 403.004 61.8 401.991 61.8ZM436.139 99.88C433.632 99.88 431.552 99.2133 429.899 97.88C428.245 96.4933 427.019 94.6533 426.219 92.36C425.419 90.0133 425.019 87.4533 425.019 84.68C425.019 79.5067 425.845 74.92 427.499 70.92C429.205 66.92 431.739 63.8 435.099 61.56C438.512 59.2667 442.779 58.12 447.899 58.12C448.539 58.12 449.259 58.1467 450.059 58.2C450.859 58.2533 451.552 58.3067 452.139 58.36C452.405 56.28 452.619 54.36 452.779 52.6C452.992 50.7867 453.205 49.2133 453.419 47.88C453.632 46.4933 453.819 45.4267 453.979 44.68C453.072 44.7333 452.085 44.7867 451.019 44.84C450.005 44.8933 449.072 44.9467 448.219 45L448.539 40.84C450.939 40.84 452.832 40.7333 454.219 40.52C455.659 40.2533 456.779 39.96 457.579 39.64C458.379 39.32 458.992 38.9733 459.419 38.6H462.379C461.899 41.96 461.392 45.72 460.859 49.88C460.379 54.04 459.819 58.9467 459.179 64.6C458.805 68.12 458.432 71.56 458.059 74.92C457.685 78.28 457.365 81.3733 457.099 84.2C456.832 87.0267 456.699 89.3467 456.699 91.16C456.699 92.12 456.805 92.9733 457.019 93.72C457.285 94.4133 457.792 94.76 458.539 94.76C459.339 94.76 460.192 94.2267 461.099 93.16C462.059 92.04 462.912 90.1467 463.659 87.48L466.699 88.2C466.539 89.2133 466.192 90.3867 465.659 91.72C465.125 93 464.432 94.28 463.579 95.56C462.725 96.7867 461.685 97.8267 460.459 98.68C459.232 99.48 457.792 99.88 456.139 99.88C454.165 99.88 452.619 99.2667 451.499 98.04C450.432 96.8133 449.899 95.0267 449.899 92.68C449.899 91.2933 449.979 89.9333 450.139 88.6C450.299 87.2667 450.512 85.8 450.779 84.2H450.619C449.232 88.4667 447.685 91.7467 445.979 94.04C444.325 96.28 442.645 97.8267 440.939 98.68C439.285 99.48 437.685 99.88 436.139 99.88ZM438.219 94.92C439.819 94.92 441.365 94.0667 442.859 92.36C444.352 90.6533 445.685 88.3867 446.859 85.56C448.085 82.68 449.072 79.56 449.819 76.2C450.192 74.3333 450.512 72.28 450.779 70.04C451.099 67.7467 451.392 65.24 451.659 62.52C450.965 62.2533 450.139 62.0667 449.179 61.96C448.272 61.8533 447.419 61.8 446.619 61.8C444.539 61.8 442.725 62.28 441.179 63.24C439.685 64.2 438.405 65.48 437.339 67.08C436.325 68.6267 435.499 70.36 434.859 72.28C434.272 74.2 433.845 76.1467 433.579 78.12C433.312 80.0933 433.179 81.96 433.179 83.72C433.179 87.0267 433.579 89.72 434.379 91.8C435.179 93.88 436.459 94.92 438.219 94.92Z" fill="#BF4E2B"/>
</svg>
